<?xml version="1.0" encoding="utf-8"?>
<!-- Generator: Adobe Illustrator 25.4.1, SVG Export Plug-In . SVG Version: 6.00 Build 0)  -->
<svg version="1.1" id="Layer_1" xmlns="http://www.w3.org/2000/svg" xmlns:xlink="http://www.w3.org/1999/xlink" x="0px" y="0px"
	 viewBox="0 0 500 246" style="enable-background:new 0 0 500 246;" xml:space="preserve">
<style type="text/css">
	.st0{fill:url(#SVGID_1_);}
	.st1{fill:url(#SVGID_00000044160394876612010450000009329775018553834666_);}
	.st2{fill:url(#SVGID_00000006700653281908512390000008484761716337041053_);}
	.st3{fill:url(#SVGID_00000055686823759589666580000018197896192816852407_);}
	.st4{fill:url(#SVGID_00000030476078122026327920000000527945276235709333_);}
	.st5{fill:url(#SVGID_00000168081963721468562020000014502040549177528237_);}
	.st6{fill:url(#SVGID_00000169556455884248204720000013124704859869066395_);}
	.st7{fill:url(#SVGID_00000078729747689934966860000002265213958878305926_);}
	.st8{fill:url(#SVGID_00000077311984713954407740000001397708078047974017_);}
	.st9{fill:url(#SVGID_00000050626397941473433340000018410145814357926789_);}
	.st10{fill:url(#SVGID_00000143616406034014795510000014409333808776072084_);}
	.st11{fill:url(#SVGID_00000146463476210133585990000005334199636059392958_);}
	.st12{fill:url(#SVGID_00000049199990780034860280000014880393955879521695_);}
	.st13{fill:url(#SVGID_00000034774173049785336030000001795769290486146216_);}
	.st14{opacity:0;}
	.st15{fill:#162B1C;}
	.st16{fill:url(#SVGID_00000040575626694353758850000017124149345330258354_);}
	.st17{fill:url(#SVGID_00000031887121945426522000000011950055237673866680_);}
	.st18{fill:url(#SVGID_00000065033630798314288170000012237451541168520860_);}
	.st19{fill:url(#SVGID_00000166665458750162497160000015376813011603300503_);}
</style>
<g>
	<g>
		<linearGradient id="SVGID_1_" gradientUnits="userSpaceOnUse" x1="15.8907" y1="221.9632" x2="47.5515" y2="221.9632">
			<stop  offset="0.1284" style="stop-color:#E6C381"/>
			<stop  offset="0.1505" style="stop-color:#DEB976"/>
			<stop  offset="0.1982" style="stop-color:#D2A965"/>
			<stop  offset="0.2576" style="stop-color:#C99D5A"/>
			<stop  offset="0.3409" style="stop-color:#C49753"/>
			<stop  offset="0.5722" style="stop-color:#C39551"/>
			<stop  offset="0.6327" style="stop-color:#C39551"/>
			<stop  offset="1" style="stop-color:#C39551"/>
		</linearGradient>
		<path class="st0" d="M47.55,203.78v7.81H20.55l4.51-4.51v33.07h-9.16v-36.36H47.55z M20.35,218.91h26.33v7.81H20.35V218.91z"/>
		
			<linearGradient id="SVGID_00000054238171707390986420000011372657054867379388_" gradientUnits="userSpaceOnUse" x1="51.7686" y1="221.9632" x2="85.0281" y2="221.9632">
			<stop  offset="0.1284" style="stop-color:#E6C381"/>
			<stop  offset="0.1505" style="stop-color:#DEB976"/>
			<stop  offset="0.1982" style="stop-color:#D2A965"/>
			<stop  offset="0.2576" style="stop-color:#C99D5A"/>
			<stop  offset="0.3409" style="stop-color:#C49753"/>
			<stop  offset="0.5722" style="stop-color:#C39551"/>
			<stop  offset="0.6327" style="stop-color:#C39551"/>
			<stop  offset="1" style="stop-color:#C39551"/>
		</linearGradient>
		<path style="fill:url(#SVGID_00000054238171707390986420000011372657054867379388_);" d="M63.36,221.96l-2.42,15.03l-3.83-4.32
			h27.93v7.47H51.77l2.81-18.18l-2.81-18.18h33.02v7.47H57.1l3.83-4.32L63.36,221.96z M83.48,218.57v6.79H57.15v-6.79H83.48z"/>
		
			<linearGradient id="SVGID_00000073702262485348241940000017834855435040407700_" gradientUnits="userSpaceOnUse" x1="91.0382" y1="221.9632" x2="130.6495" y2="221.9632">
			<stop  offset="0.1284" style="stop-color:#E6C381"/>
			<stop  offset="0.1505" style="stop-color:#DEB976"/>
			<stop  offset="0.1982" style="stop-color:#D2A965"/>
			<stop  offset="0.2576" style="stop-color:#C99D5A"/>
			<stop  offset="0.3409" style="stop-color:#C49753"/>
			<stop  offset="0.5722" style="stop-color:#C39551"/>
			<stop  offset="0.6327" style="stop-color:#C39551"/>
			<stop  offset="1" style="stop-color:#C39551"/>
		</linearGradient>
		<path style="fill:url(#SVGID_00000073702262485348241940000017834855435040407700_);" d="M124.73,233.89l-2.96,0.53v-30.64h8.87
			v36.36h-11.54L96.95,209.5l2.96-0.53v31.17h-8.87v-36.36h11.88L124.73,233.89z"/>
		
			<linearGradient id="SVGID_00000096752527609092363600000004537472885401360283_" gradientUnits="userSpaceOnUse" x1="137.727" y1="221.9632" x2="146.8902" y2="221.9632">
			<stop  offset="0.1284" style="stop-color:#E6C381"/>
			<stop  offset="0.1505" style="stop-color:#DEB976"/>
			<stop  offset="0.1982" style="stop-color:#D2A965"/>
			<stop  offset="0.2576" style="stop-color:#C99D5A"/>
			<stop  offset="0.3409" style="stop-color:#C49753"/>
			<stop  offset="0.5722" style="stop-color:#C39551"/>
			<stop  offset="0.6327" style="stop-color:#C39551"/>
			<stop  offset="1" style="stop-color:#C39551"/>
		</linearGradient>
		<path style="fill:url(#SVGID_00000096752527609092363600000004537472885401360283_);" d="M137.73,203.78h9.16v36.36h-9.16V203.78z
			"/>
		
			<linearGradient id="SVGID_00000142174101989181336760000007699097726622718390_" gradientUnits="userSpaceOnUse" x1="149.9451" y1="221.9632" x2="192.1749" y2="221.9632">
			<stop  offset="0.1284" style="stop-color:#E6C381"/>
			<stop  offset="0.1505" style="stop-color:#DEB976"/>
			<stop  offset="0.1982" style="stop-color:#D2A965"/>
			<stop  offset="0.2576" style="stop-color:#C99D5A"/>
			<stop  offset="0.3409" style="stop-color:#C49753"/>
			<stop  offset="0.5722" style="stop-color:#C39551"/>
			<stop  offset="0.6327" style="stop-color:#C39551"/>
			<stop  offset="1" style="stop-color:#C39551"/>
		</linearGradient>
		<path style="fill:url(#SVGID_00000142174101989181336760000007699097726622718390_);" d="M174.53,223.95v-5.48l17.65,21.67h-11.3
			l-12.07-15.56h4.36l-12.12,15.56h-11.1l17.75-21.62v5.38l-16.63-20.12h11.39l11.01,14.06H169l10.86-14.06h11.2L174.53,223.95z"/>
		
			<linearGradient id="SVGID_00000042701112785013366070000007076897009982698678_" gradientUnits="userSpaceOnUse" x1="206.2825" y1="221.9632" x2="238.5727" y2="221.9632">
			<stop  offset="0.1284" style="stop-color:#E6C381"/>
			<stop  offset="0.1505" style="stop-color:#DEB976"/>
			<stop  offset="0.1982" style="stop-color:#D2A965"/>
			<stop  offset="0.2576" style="stop-color:#C99D5A"/>
			<stop  offset="0.3409" style="stop-color:#C49753"/>
			<stop  offset="0.5722" style="stop-color:#C39551"/>
			<stop  offset="0.6327" style="stop-color:#C39551"/>
			<stop  offset="1" style="stop-color:#C39551"/>
		</linearGradient>
		<path style="fill:url(#SVGID_00000042701112785013366070000007076897009982698678_);" d="M215.45,203.78v32.29l-4.12-4.02h27.25
			v8.1h-32.29v-36.36H215.45z"/>
		
			<linearGradient id="SVGID_00000088854313024343697880000006697367596331424642_" gradientUnits="userSpaceOnUse" x1="239.5926" y1="221.9632" x2="282.4026" y2="221.9632">
			<stop  offset="0.1284" style="stop-color:#E6C381"/>
			<stop  offset="0.1505" style="stop-color:#DEB976"/>
			<stop  offset="0.1982" style="stop-color:#D2A965"/>
			<stop  offset="0.2576" style="stop-color:#C99D5A"/>
			<stop  offset="0.3409" style="stop-color:#C49753"/>
			<stop  offset="0.5722" style="stop-color:#C39551"/>
			<stop  offset="0.6327" style="stop-color:#C39551"/>
			<stop  offset="1" style="stop-color:#C39551"/>
		</linearGradient>
		<path style="fill:url(#SVGID_00000088854313024343697880000006697367596331424642_);" d="M260.97,240.92
			c-4.27,0-8.01-0.79-11.22-2.38c-3.22-1.58-5.71-3.8-7.49-6.64c-1.78-2.84-2.67-6.16-2.67-9.94c0-3.78,0.89-7.09,2.67-9.94
			c1.78-2.84,4.27-5.06,7.49-6.64c3.22-1.58,6.96-2.38,11.22-2.38c4.27,0,8.01,0.79,11.22,2.38c3.22,1.58,5.72,3.8,7.52,6.64
			c1.79,2.84,2.69,6.16,2.69,9.94c0,3.78-0.9,7.09-2.69,9.94c-1.79,2.84-4.3,5.06-7.52,6.64
			C268.98,240.13,265.24,240.92,260.97,240.92z M260.97,232.73c2.52,0,4.69-0.43,6.5-1.28c1.81-0.86,3.21-2.09,4.19-3.71
			c0.99-1.62,1.48-3.54,1.48-5.77c0-2.23-0.49-4.15-1.48-5.77c-0.99-1.62-2.38-2.85-4.19-3.71c-1.81-0.86-3.98-1.28-6.5-1.28
			c-2.49,0-4.64,0.43-6.45,1.28c-1.81,0.86-3.22,2.09-4.22,3.71c-1,1.62-1.5,3.54-1.5,5.77c0,2.23,0.5,4.15,1.5,5.77
			c1,1.62,2.41,2.85,4.22,3.71C256.34,232.3,258.48,232.73,260.97,232.73z"/>
		
			<linearGradient id="SVGID_00000018955297830055522380000017133766730385991304_" gradientUnits="userSpaceOnUse" x1="286.2323" y1="221.9632" x2="328.0747" y2="221.9632">
			<stop  offset="0.1284" style="stop-color:#E6C381"/>
			<stop  offset="0.1505" style="stop-color:#DEB976"/>
			<stop  offset="0.1982" style="stop-color:#D2A965"/>
			<stop  offset="0.2576" style="stop-color:#C99D5A"/>
			<stop  offset="0.3409" style="stop-color:#C49753"/>
			<stop  offset="0.5722" style="stop-color:#C39551"/>
			<stop  offset="0.6327" style="stop-color:#C39551"/>
			<stop  offset="1" style="stop-color:#C39551"/>
		</linearGradient>
		<path style="fill:url(#SVGID_00000018955297830055522380000017133766730385991304_);" d="M324.87,224.39
			c-0.07,2.2-0.5,4.29-1.31,6.28c-0.81,1.99-1.97,3.75-3.49,5.28c-1.52,1.54-3.39,2.75-5.62,3.64c-2.23,0.89-4.83,1.33-7.81,1.33
			c-2.84,0-5.5-0.42-7.97-1.26s-4.65-2.08-6.52-3.71c-1.87-1.63-3.33-3.62-4.36-5.96c-1.03-2.34-1.55-5.02-1.55-8.02
			c0-3.01,0.53-5.68,1.58-8.02c1.05-2.34,2.52-4.33,4.41-5.96c1.89-1.63,4.1-2.87,6.64-3.71c2.54-0.84,5.31-1.26,8.31-1.26
			c3.91,0,7.31,0.61,10.21,1.84c2.89,1.23,5.22,2.91,6.98,5.04c1.76,2.13,2.88,4.59,3.37,7.37h-9.26c-0.32-1.36-1-2.53-2.04-3.52
			c-1.03-0.99-2.34-1.74-3.9-2.25c-1.57-0.52-3.35-0.78-5.36-0.78c-2.42,0-4.51,0.43-6.25,1.29c-1.75,0.86-3.1,2.12-4.07,3.78
			c-0.97,1.66-1.45,3.73-1.45,6.18c0,2.46,0.51,4.54,1.53,6.25c1.02,1.71,2.47,3.01,4.36,3.88c1.89,0.87,4.11,1.31,6.67,1.31
			c2.49,0,4.68-0.37,6.57-1.11c1.89-0.74,3.39-1.81,4.51-3.2c1.11-1.39,1.75-3.05,1.91-4.99L324.87,224.39z M309.02,228.07v-6.5
			h19.05v18.57h-6.55l-1.26-14.54l1.84,2.47H309.02z"/>
		
			<linearGradient id="SVGID_00000029740749469393518430000018087887369490023852_" gradientUnits="userSpaceOnUse" x1="334.3268" y1="221.9632" x2="343.49" y2="221.9632">
			<stop  offset="0.1284" style="stop-color:#E6C381"/>
			<stop  offset="0.1505" style="stop-color:#DEB976"/>
			<stop  offset="0.1982" style="stop-color:#D2A965"/>
			<stop  offset="0.2576" style="stop-color:#C99D5A"/>
			<stop  offset="0.3409" style="stop-color:#C49753"/>
			<stop  offset="0.5722" style="stop-color:#C39551"/>
			<stop  offset="0.6327" style="stop-color:#C39551"/>
			<stop  offset="1" style="stop-color:#C39551"/>
		</linearGradient>
		<path style="fill:url(#SVGID_00000029740749469393518430000018087887369490023852_);" d="M334.33,203.78h9.16v36.36h-9.16V203.78z
			"/>
		
			<linearGradient id="SVGID_00000031890635472870180050000013255337001028583822_" gradientUnits="userSpaceOnUse" x1="348.8234" y1="221.9632" x2="385.7197" y2="221.9632">
			<stop  offset="0.1284" style="stop-color:#E6C381"/>
			<stop  offset="0.1505" style="stop-color:#DEB976"/>
			<stop  offset="0.1982" style="stop-color:#D2A965"/>
			<stop  offset="0.2576" style="stop-color:#C99D5A"/>
			<stop  offset="0.3409" style="stop-color:#C49753"/>
			<stop  offset="0.5722" style="stop-color:#C39551"/>
			<stop  offset="0.6327" style="stop-color:#C39551"/>
			<stop  offset="1" style="stop-color:#C39551"/>
		</linearGradient>
		<path style="fill:url(#SVGID_00000031890635472870180050000013255337001028583822_);" d="M348.82,228.27h9.26
			c0.16,1.1,0.66,2.07,1.5,2.91c0.84,0.84,1.96,1.49,3.37,1.94c1.41,0.45,3.05,0.68,4.92,0.68c2.68,0,4.79-0.37,6.33-1.12
			c1.53-0.74,2.3-1.79,2.3-3.15c0-1.03-0.44-1.83-1.33-2.4c-0.89-0.57-2.55-0.98-4.97-1.24l-7.03-0.73
			c-4.88-0.48-8.41-1.62-10.59-3.39c-2.18-1.78-3.27-4.2-3.27-7.27c0-2.42,0.72-4.49,2.16-6.21c1.44-1.71,3.46-3.02,6.06-3.93
			c2.6-0.9,5.65-1.36,9.14-1.36c3.46,0,6.51,0.5,9.16,1.5c2.65,1,4.77,2.39,6.35,4.17c1.58,1.78,2.44,3.85,2.57,6.21h-9.26
			c-0.13-0.97-0.58-1.8-1.33-2.5c-0.76-0.69-1.78-1.24-3.05-1.65c-1.28-0.4-2.82-0.61-4.63-0.61c-2.42,0-4.36,0.35-5.79,1.04
			c-1.44,0.7-2.16,1.69-2.16,2.98c0,0.97,0.43,1.73,1.28,2.28c0.86,0.55,2.38,0.95,4.58,1.21l7.42,0.82
			c3.39,0.36,6.11,0.92,8.14,1.7c2.04,0.78,3.51,1.84,4.41,3.2c0.9,1.36,1.36,3.07,1.36,5.14c0,2.49-0.75,4.66-2.25,6.52
			c-1.5,1.86-3.6,3.31-6.3,4.34c-2.7,1.03-5.84,1.55-9.43,1.55c-3.72,0-6.97-0.53-9.77-1.6c-2.8-1.07-4.99-2.54-6.59-4.44
			C349.77,232.99,348.92,230.79,348.82,228.27z"/>
		
			<linearGradient id="SVGID_00000176004610263060903060000012064659486342600845_" gradientUnits="userSpaceOnUse" x1="386.9799" y1="221.9632" x2="424.4581" y2="221.9632">
			<stop  offset="0.1284" style="stop-color:#E6C381"/>
			<stop  offset="0.1505" style="stop-color:#DEB976"/>
			<stop  offset="0.1982" style="stop-color:#D2A965"/>
			<stop  offset="0.2576" style="stop-color:#C99D5A"/>
			<stop  offset="0.3409" style="stop-color:#C49753"/>
			<stop  offset="0.5722" style="stop-color:#C39551"/>
			<stop  offset="0.6327" style="stop-color:#C39551"/>
			<stop  offset="1" style="stop-color:#C39551"/>
		</linearGradient>
		<path style="fill:url(#SVGID_00000176004610263060903060000012064659486342600845_);" d="M386.98,203.78h37.48v8.1h-37.48V203.78z
			 M401.14,207.81h9.16v32.34h-9.16V207.81z"/>
		
			<linearGradient id="SVGID_00000170253397508891517540000003206002592307260325_" gradientUnits="userSpaceOnUse" x1="428.8697" y1="221.9632" x2="438.0329" y2="221.9632">
			<stop  offset="0.1284" style="stop-color:#E6C381"/>
			<stop  offset="0.1505" style="stop-color:#DEB976"/>
			<stop  offset="0.1982" style="stop-color:#D2A965"/>
			<stop  offset="0.2576" style="stop-color:#C99D5A"/>
			<stop  offset="0.3409" style="stop-color:#C49753"/>
			<stop  offset="0.5722" style="stop-color:#C39551"/>
			<stop  offset="0.6327" style="stop-color:#C39551"/>
			<stop  offset="1" style="stop-color:#C39551"/>
		</linearGradient>
		<path style="fill:url(#SVGID_00000170253397508891517540000003206002592307260325_);" d="M428.87,203.78h9.16v36.36h-9.16V203.78z
			"/>
		
			<linearGradient id="SVGID_00000033330629800745159190000005696978023907580055_" gradientUnits="userSpaceOnUse" x1="443.4628" y1="221.9632" x2="485.0126" y2="221.9632">
			<stop  offset="0.1284" style="stop-color:#E6C381"/>
			<stop  offset="0.1505" style="stop-color:#DEB976"/>
			<stop  offset="0.1982" style="stop-color:#D2A965"/>
			<stop  offset="0.2576" style="stop-color:#C99D5A"/>
			<stop  offset="0.3409" style="stop-color:#C49753"/>
			<stop  offset="0.5722" style="stop-color:#C39551"/>
			<stop  offset="0.6327" style="stop-color:#C39551"/>
			<stop  offset="1" style="stop-color:#C39551"/>
		</linearGradient>
		<path style="fill:url(#SVGID_00000033330629800745159190000005696978023907580055_);" d="M485.01,225.11
			c-0.36,3.14-1.44,5.89-3.25,8.27c-1.81,2.38-4.2,4.23-7.18,5.55c-2.97,1.32-6.37,1.99-10.18,1.99c-4.17,0-7.83-0.79-10.98-2.38
			c-3.15-1.58-5.6-3.8-7.34-6.64c-1.75-2.84-2.62-6.16-2.62-9.94c0-3.78,0.87-7.09,2.62-9.94c1.74-2.84,4.19-5.06,7.34-6.64
			c3.15-1.58,6.81-2.38,10.98-2.38c3.81,0,7.21,0.66,10.18,1.99c2.97,1.33,5.36,3.17,7.18,5.53c1.81,2.36,2.89,5.12,3.25,8.29h-9.21
			c-0.32-1.65-0.98-3.05-1.96-4.22c-0.99-1.16-2.28-2.06-3.88-2.69s-3.45-0.95-5.55-0.95c-2.42,0-4.51,0.44-6.26,1.33
			c-1.74,0.89-3.09,2.16-4.02,3.81c-0.94,1.65-1.41,3.6-1.41,5.87s0.47,4.22,1.41,5.87c0.94,1.65,2.28,2.92,4.02,3.81
			c1.75,0.89,3.83,1.33,6.26,1.33c2.1,0,3.95-0.31,5.55-0.92c1.6-0.61,2.89-1.5,3.88-2.67c0.99-1.16,1.64-2.59,1.96-4.27H485.01z"/>
	</g>
	<g>
		<g>
			
				<linearGradient id="SVGID_00000118377502157108855180000008699333440065510029_" gradientUnits="userSpaceOnUse" x1="176.3937" y1="80.1194" x2="301.347" y2="80.1194">
				<stop  offset="0.1284" style="stop-color:#E6C381"/>
				<stop  offset="0.1505" style="stop-color:#DEB976"/>
				<stop  offset="0.1982" style="stop-color:#D2A965"/>
				<stop  offset="0.2576" style="stop-color:#C99D5A"/>
				<stop  offset="0.3409" style="stop-color:#C49753"/>
				<stop  offset="0.5722" style="stop-color:#C39551"/>
				<stop  offset="0.6327" style="stop-color:#C39551"/>
				<stop  offset="1" style="stop-color:#C39551"/>
			</linearGradient>
			<path style="fill:url(#SVGID_00000118377502157108855180000008699333440065510029_);" d="M281.15,44.09
				c-7.92,9.25-15.78,15.01-31.51,26.53c-5.21,3.81-8.82,6.25-12.35,8.63c-4.53,3.06-8.93,6.05-16.4,11.82
				c-0.41,0.32-0.82,0.64-1.23,0.96c-0.04,0.03-0.08,0.06-0.12,0.09c-12.96,10.11-17.51,15.06-21.32,21.07
				c-2.59,4.1-6.81,10.9-8.29,20.45c-0.83,5.39-0.56,10.09,0,13.94c0.44,2.99,1.06,5.46,1.47,7.32l-5.58-6.2l-9.42-10.47
				c-0.02-0.33-0.02-0.66-0.01-0.99c0.28-10.78,4.15-24.6,9.4-33.17c7.39-12.33,16.22-19.57,24.88-26.53
				c9.73-7.83,11.59-7.45,31.23-20.18c17.71-11.47,26.56-17.2,35.93-25.98c15.75-14.75,21.75-26.87,23.22-25.98
				C302.88,6.49,296.16,26.56,281.15,44.09z"/>
			<g class="st14">
				<path class="st15" d="M191.86,155.77l-15.7-17.44l0-0.09c-0.02-0.34-0.02-0.67-0.01-1.01c0.28-11,4.16-24.69,9.43-33.3
					c7.58-12.63,16.8-20.05,24.93-26.6c5.67-4.56,8.65-6.33,14.06-9.54c3.79-2.25,8.97-5.33,17.19-10.65l0.08-0.05
					c17.63-11.42,26.48-17.15,35.82-25.9c9.35-8.76,15.28-16.62,18.82-21.32c2.76-3.66,3.91-5.18,4.69-4.7
					c0.2,0.12,0.32,0.35,0.38,0.7c0.59,3.68-6.62,22.49-20.22,38.38c-7.94,9.28-15.83,15.06-31.55,26.57
					c-5.18,3.8-8.8,6.23-12.3,8.59l-0.06,0.04c-4.28,2.89-8.7,5.88-16.38,11.82l-1.23,0.96c-0.08,0.06-0.11,0.08-0.14,0.1
					c-13.27,10.35-17.56,15.19-21.24,20.99c-2.36,3.73-6.75,10.67-8.26,20.36c-0.7,4.52-0.7,9.05,0,13.86
					c0.36,2.41,0.83,4.49,1.21,6.16c0.09,0.4,0.18,0.78,0.26,1.14L191.86,155.77z M176.65,138.12l14.3,15.9
					c-0.02-0.07-0.03-0.14-0.05-0.21c-0.38-1.68-0.86-3.77-1.22-6.2c-0.71-4.86-0.71-9.45,0-14.01c1.52-9.79,5.95-16.79,8.33-20.55
					c3.71-5.85,8.03-10.72,21.37-21.13c0.04-0.03,0.06-0.04,0.08-0.06l0.23-0.18l1.04-0.81c7.69-5.95,12.12-8.94,16.41-11.83
					l0.06-0.04c3.49-2.36,7.11-4.79,12.28-8.58c15.69-11.49,23.56-17.26,31.47-26.5l0.19,0.16l-0.19-0.16
					c13.51-15.78,20.69-34.36,20.1-37.97c-0.04-0.27-0.12-0.33-0.14-0.35c-0.4-0.24-2.17,2.09-4.04,4.57
					c-3.55,4.71-9.5,12.59-18.88,21.38c-9.37,8.78-18.23,14.52-35.89,25.96l-0.08,0.05c-8.23,5.33-13.42,8.41-17.21,10.66
					c-5.39,3.2-8.36,4.96-14,9.5c-8.1,6.52-17.29,13.91-24.82,26.47c-5.15,8.4-9.09,22.3-9.36,33.05
					C176.64,137.53,176.64,137.83,176.65,138.12z"/>
			</g>
		</g>
		<g>
			
				<linearGradient id="SVGID_00000146465512484476669150000005948381716725987511_" gradientUnits="userSpaceOnUse" x1="185.8237" y1="96.5041" x2="298.283" y2="96.5041">
				<stop  offset="0.1284" style="stop-color:#E6C381"/>
				<stop  offset="0.1505" style="stop-color:#DEB976"/>
				<stop  offset="0.1982" style="stop-color:#D2A965"/>
				<stop  offset="0.2576" style="stop-color:#C99D5A"/>
				<stop  offset="0.3409" style="stop-color:#C49753"/>
				<stop  offset="0.5722" style="stop-color:#C39551"/>
				<stop  offset="0.6327" style="stop-color:#C39551"/>
				<stop  offset="1" style="stop-color:#C39551"/>
			</linearGradient>
			<path style="fill:url(#SVGID_00000146465512484476669150000005948381716725987511_);" d="M280.11,64.26
				c-7.13,8.33-14.2,13.51-28.36,23.88c-4.69,3.43-7.93,5.62-11.11,7.77c-4.08,2.76-8.04,5.45-14.76,10.64
				c-11.4,8.81-15.98,13.39-19.36,18.33c-0.01,0.01-0.01,0.01-0.02,0.02c-0.35,0.51-0.69,1.03-1.02,1.55
				c-2.33,3.69-6.13,9.81-7.46,18.41c-0.75,4.85-0.5,9.08,0,12.54c0.37,2.49,0.88,4.58,1.24,6.21l-4.95-5.5l-2.89-3.21v-0.01
				l-5.58-6.2c-0.01-0.2-0.01-0.4,0-0.6c0.25-9.7,3.73-22.14,8.46-29.85c6.65-11.09,14.61-17.62,22.39-23.88
				c1.04-0.84,1.99-1.58,2.87-2.24c0.04-0.03,0.08-0.06,0.12-0.09c6.43-4.81,9.65-5.8,25.11-15.83
				c15.94-10.32,23.91-15.48,32.34-23.38c14.17-13.28,19.57-24.19,20.9-23.38C299.66,30.43,293.61,48.49,280.11,64.26z"/>
			<g class="st14">
				<path class="st15" d="M199.7,164.49l-14.12-15.69l0-0.09c-0.01-0.2-0.01-0.41,0-0.61c0.25-9.9,3.75-22.23,8.49-29.98
					c6.81-11.37,15.12-18.05,22.45-23.95c0.98-0.79,1.93-1.53,2.88-2.25c0.04-0.03,0.06-0.04,0.08-0.06l0.05-0.04
					c3.36-2.51,5.85-3.99,9.64-6.24c3.41-2.02,8.08-4.79,15.49-9.59c15.9-10.3,23.89-15.47,32.3-23.36
					c8.42-7.88,13.75-14.96,16.94-19.18c2.49-3.31,3.52-4.67,4.25-4.23c0.18,0.11,0.3,0.33,0.35,0.64
					c0.55,3.42-5.75,20.02-18.2,34.56l-0.19-0.16l0.19,0.16c-7.15,8.35-14.25,13.56-28.4,23.92c-4.7,3.44-7.96,5.64-11.12,7.77
					c-3.9,2.64-7.93,5.36-14.75,10.63c-12.05,9.31-16.21,13.75-19.31,18.27c-0.37,0.53-0.7,1.04-1.03,1.57
					c-2.12,3.36-6.08,9.61-7.43,18.31c-0.63,4.06-0.63,8.14,0,12.47c0.31,2.08,0.72,3.9,1.05,5.37L199.7,164.49z M191.66,154.81
					l7.14,7.93c-0.33-1.45-0.73-3.25-1.03-5.29c-0.64-4.38-0.64-8.51,0-12.62c1.36-8.81,5.35-15.11,7.5-18.5
					c0.33-0.53,0.67-1.04,1.03-1.56l0.05-0.06c3.61-5.27,8.69-10.08,19.38-18.34c6.83-5.28,10.87-8.01,14.77-10.65
					c3.15-2.13,6.41-4.33,11.1-7.76c14.12-10.34,21.2-15.53,28.32-23.84c12.15-14.2,18.61-30.9,18.09-34.15
					c-0.03-0.18-0.08-0.27-0.12-0.29c-0.35-0.21-2,1.98-3.6,4.1c-3.2,4.24-8.55,11.33-17,19.25c-8.45,7.92-16.44,13.1-32.37,23.41
					c-7.42,4.8-12.09,7.58-15.5,9.6c-3.77,2.24-6.26,3.71-9.6,6.21c-0.07,0.05-0.1,0.08-0.14,0.1c-0.93,0.71-1.87,1.44-2.85,2.23
					c-7.29,5.87-15.56,12.52-22.33,23.81c-4.63,7.56-8.17,20.06-8.42,29.73c0,0.16-0.01,0.33,0,0.49L191.66,154.81z"/>
			</g>
		</g>
		<g>
			
				<linearGradient id="SVGID_00000109020779750362492730000006935378243444420482_" gradientUnits="userSpaceOnUse" x1="194.3024" y1="111.421" x2="295.5032" y2="111.421">
				<stop  offset="0.1284" style="stop-color:#E6C381"/>
				<stop  offset="0.1505" style="stop-color:#DEB976"/>
				<stop  offset="0.1982" style="stop-color:#D2A965"/>
				<stop  offset="0.2576" style="stop-color:#C99D5A"/>
				<stop  offset="0.3409" style="stop-color:#C49753"/>
				<stop  offset="0.5722" style="stop-color:#C39551"/>
				<stop  offset="0.6327" style="stop-color:#C39551"/>
				<stop  offset="1" style="stop-color:#C39551"/>
			</linearGradient>
			<path style="fill:url(#SVGID_00000109020779750362492730000006935378243444420482_);" d="M279.15,82.98
				c-6.42,7.5-12.79,12.16-25.52,21.49c-4.22,3.09-7.14,5.06-10.01,6.99c-2.95,1.99-5.83,3.95-9.98,7.06
				c-1.01,0.76-2.11,1.59-3.29,2.51c-11.34,8.77-15.17,12.89-18.36,17.91c-2.1,3.32-5.52,8.83-6.72,16.57
				c-0.68,4.37-0.45,8.18,0,11.29c0.25,1.7,0.57,3.19,0.86,4.44l-4.46-4.95l-2.4-2.68l-0.01-0.01l-4.95-5.5
				c0.29-8.68,3.4-19.7,7.6-26.55c1.47-2.45,3.01-4.65,4.6-6.66c0.01-0.01,0.01-0.02,0.02-0.02c4.89-6.17,10.25-10.56,15.53-14.81
				c7.89-6.35,9.39-6.04,25.3-16.35c14.34-9.29,21.52-13.93,29.11-21.05c12.75-11.95,17.61-21.76,18.81-21.05
				C296.74,52.52,291.3,68.78,279.15,82.98z"/>
			<g class="st14">
				<path class="st15" d="M206.58,172.13l-12.53-13.92l0-0.1c0.3-8.85,3.44-19.82,7.64-26.67c1.43-2.38,2.94-4.56,4.62-6.69
					l0.04-0.05c5.03-6.36,10.62-10.86,15.55-14.82c4.6-3.7,7.01-5.13,11.39-7.73c3.07-1.82,7.27-4.31,13.93-8.63l0.06-0.04
					c14.28-9.25,21.45-13.89,29.01-20.98c7.57-7.09,12.37-13.45,15.24-17.25c2.26-2.99,3.18-4.23,3.87-3.82
					c0.17,0.1,0.28,0.3,0.33,0.6c0.5,3.08-5.18,18.03-16.39,31.12l0,0c-6.44,7.52-12.83,12.2-25.56,21.53
					c-4.27,3.13-7.19,5.1-10.02,7c-3.04,2.05-5.9,4-9.97,7.06c-1.01,0.76-2.1,1.59-3.29,2.51c-11.58,8.95-15.25,13.03-18.3,17.85
					c-1.91,3.02-5.47,8.65-6.68,16.47c-0.57,3.65-0.57,7.32,0,11.21c0.25,1.71,0.57,3.2,0.85,4.43L206.58,172.13z M194.56,158.02
					l11.11,12.35c-0.23-1.03-0.46-2.22-0.65-3.53c-0.58-3.95-0.58-7.67,0-11.36c1.23-7.93,4.82-13.61,6.75-16.66
					c3.08-4.86,6.78-8.98,18.42-17.98c1.19-0.92,2.28-1.75,3.3-2.51c4.09-3.07,6.95-5.02,9.99-7.07c2.82-1.9,5.74-3.87,10-6.99
					c12.71-9.31,19.08-13.98,25.48-21.45c11.53-13.47,16.67-28.27,16.27-30.72c-0.03-0.21-0.09-0.25-0.09-0.25
					c-0.29-0.16-1.84,1.88-3.21,3.7c-2.88,3.81-7.7,10.2-15.29,17.32c-7.6,7.12-14.78,11.77-29.08,21.03l-0.06,0.04
					c-6.67,4.32-10.87,6.82-13.95,8.64c-4.36,2.59-6.76,4.01-11.34,7.69c-4.91,3.95-10.47,8.42-15.49,14.77
					c-1.68,2.13-3.18,4.3-4.6,6.66C197.97,138.45,194.87,149.26,194.56,158.02z"/>
			</g>
		</g>
		<g>
			
				<linearGradient id="SVGID_00000152227700967786405050000016993653776033057942_" gradientUnits="userSpaceOnUse" x1="201.6602" y1="124.4166" x2="292.7206" y2="124.4166">
				<stop  offset="0.1284" style="stop-color:#E6C381"/>
				<stop  offset="0.1505" style="stop-color:#DEB976"/>
				<stop  offset="0.1982" style="stop-color:#D2A965"/>
				<stop  offset="0.2576" style="stop-color:#C99D5A"/>
				<stop  offset="0.3409" style="stop-color:#C49753"/>
				<stop  offset="0.5722" style="stop-color:#C39551"/>
				<stop  offset="0.6327" style="stop-color:#C39551"/>
				<stop  offset="1" style="stop-color:#C39551"/>
			</linearGradient>
			<path style="fill:url(#SVGID_00000152227700967786405050000016993653776033057942_);" d="M278,99.16
				c-5.78,6.74-11.51,10.95-22.97,19.34c-3.79,2.78-6.43,4.56-9,6.29c-3.31,2.23-6.51,4.41-11.96,8.62
				c-10.2,7.89-13.65,11.59-16.52,16.12c-1.59,2.52-4.04,6.43-5.41,11.79v0.01c-0.25,0.99-0.47,2.03-0.64,3.12
				c-0.61,3.93-0.41,7.36,0,10.16c0.18,1.23,0.41,2.34,0.62,3.32l-2.58-2.86l-3.43-3.81l-4.46-4.95c0.35-7.74,3.12-17.37,6.82-23.41
				c5.39-8.99,11.83-14.27,18.14-19.35c2.86-2.3,4.79-3.63,7.02-5.01c3.28-2.03,7.21-4.16,15.75-9.7
				c12.91-8.36,19.36-12.54,26.19-18.94c11.48-10.75,15.85-19.59,16.93-18.94C293.84,71.75,288.94,86.38,278,99.16z"/>
			<g class="st14">
				<path class="st15" d="M212.57,178.78l-11.16-12.4l0-0.1c0.36-7.85,3.18-17.53,6.86-23.53c5.53-9.22,12.26-14.64,18.19-19.41
					c3.02-2.42,4.93-3.72,7.04-5.03c0.97-0.6,2-1.21,3.18-1.91c2.77-1.64,6.55-3.88,12.57-7.78c12.89-8.35,19.34-12.53,26.16-18.92
					c6.82-6.38,11.14-12.11,13.72-15.53c2.1-2.78,2.89-3.82,3.51-3.44c0.16,0.1,0.26,0.28,0.31,0.55
					c0.45,2.77-4.66,16.24-14.75,28.03h0c-5.8,6.77-11.55,10.99-23.02,19.38c-3.71,2.72-6.32,4.48-8.84,6.18l-0.17,0.12
					c-3.14,2.12-6.38,4.31-11.94,8.61c-10.43,8.06-13.72,11.73-16.46,16.06c-1.49,2.35-3.98,6.29-5.37,11.69l-0.01,0.03
					c-0.27,1.08-0.48,2.1-0.63,3.09c-0.51,3.29-0.51,6.59,0,10.09c0.18,1.22,0.4,2.31,0.62,3.3L212.57,178.78z M201.91,166.2
					l9.77,10.86c-0.15-0.75-0.3-1.55-0.43-2.42c-0.52-3.54-0.52-6.89,0-10.24c0.15-1.01,0.36-2.04,0.64-3.14
					c1.41-5.49,3.94-9.48,5.44-11.87c2.77-4.37,6.09-8.08,16.58-16.18c5.58-4.31,8.83-6.51,11.97-8.63l0.17-0.12
					c2.51-1.7,5.12-3.45,8.82-6.17c11.43-8.37,17.17-12.58,22.93-19.3l0,0c10.33-12.08,14.93-25.22,14.65-27.58
					c-0.03-0.21-0.08-0.26-0.08-0.26c0,0-0.01,0-0.01,0c-0.34,0-1.55,1.61-2.84,3.31c-2.59,3.43-6.93,9.18-13.78,15.6
					c-6.84,6.41-13.32,10.61-26.21,18.96c-6.05,3.92-9.84,6.17-12.61,7.81c-1.18,0.7-2.2,1.31-3.17,1.9
					c-2.09,1.3-3.99,2.58-6.99,4.99c-5.9,4.75-12.59,10.13-18.08,19.28C205.07,148.92,202.29,158.44,201.91,166.2z"/>
			</g>
		</g>
		<g>
			
				<linearGradient id="SVGID_00000031173978514233457500000002541912337934368164_" gradientUnits="userSpaceOnUse" x1="208.9959" y1="136.6298" x2="290.969" y2="136.6298">
				<stop  offset="0.1284" style="stop-color:#E6C381"/>
				<stop  offset="0.1505" style="stop-color:#DEB976"/>
				<stop  offset="0.1982" style="stop-color:#D2A965"/>
				<stop  offset="0.2576" style="stop-color:#C99D5A"/>
				<stop  offset="0.3409" style="stop-color:#C49753"/>
				<stop  offset="0.5722" style="stop-color:#C39551"/>
				<stop  offset="0.6327" style="stop-color:#C39551"/>
				<stop  offset="1" style="stop-color:#C39551"/>
			</linearGradient>
			<path style="fill:url(#SVGID_00000031173978514233457500000002541912337934368164_);" d="M277.72,113.48
				c-5.2,6.07-10.36,9.85-20.67,17.41c-3.42,2.5-5.79,4.1-8.1,5.67c-2.97,2.01-5.85,3.97-10.76,7.76
				c-9.19,7.1-12.29,10.44-14.87,14.51c-1.7,2.69-4.47,7.15-5.44,13.42c-0.55,3.54-0.36,6.62,0,9.14c0.22,1.47,0.5,2.75,0.74,3.81
				l-7.04-7.83L209,174.5c0.12-4.26,1.09-9.23,2.59-13.73v-0.01c0.99-2.95,2.21-5.7,3.57-7.93c4.85-8.09,10.65-12.84,16.32-17.41
				c6.39-5.14,7.61-4.89,20.49-13.24c11.62-7.53,17.43-11.29,23.58-17.05c10.33-9.68,14.27-17.63,15.24-17.05
				C291.97,88.82,287.56,101.99,277.72,113.48z"/>
			<g class="st14">
				<path class="st15" d="M219.06,186.03l-0.63-0.67l-9.69-10.77l0-0.1c0.11-4.14,1.06-9.16,2.59-13.77l0.01-0.04
					c1.02-3.04,2.26-5.8,3.59-7.98c4.97-8.29,11.03-13.17,16.38-17.47c3.73-3,5.69-4.16,9.24-6.27c2.48-1.47,5.89-3.49,11.28-6.99
					l0.09-0.06c11.54-7.48,17.33-11.23,23.45-16.96c6.13-5.74,10.02-10.89,12.34-13.97c1.9-2.52,2.61-3.46,3.2-3.11
					c0.15,0.09,0.25,0.27,0.29,0.52c0.4,2.5-4.2,14.64-13.28,25.25h0c-5.23,6.1-10.4,9.89-20.72,17.45
					c-3.34,2.45-5.69,4.03-7.95,5.56l-0.16,0.11c-3.2,2.16-6.03,4.11-10.75,7.75c-9.37,7.25-12.34,10.55-14.81,14.44
					c-1.54,2.44-4.42,6.99-5.4,13.33c-0.46,2.95-0.46,5.92,0,9.07c0.21,1.44,0.5,2.72,0.73,3.75L219.06,186.03z M209.25,174.41
					l8.92,9.91c-0.19-0.87-0.38-1.84-0.54-2.9c-0.46-3.2-0.46-6.22,0-9.22c1-6.44,3.91-11.04,5.48-13.52
					c2.5-3.94,5.5-7.28,14.93-14.57c4.73-3.65,7.56-5.6,10.77-7.77l0.16-0.11c2.26-1.53,4.6-3.11,7.94-5.55
					c10.28-7.53,15.44-11.31,20.63-17.37c10.17-11.88,13.86-24.33,13.11-25.02c-0.29,0.01-1.38,1.45-2.54,2.98
					c-2.33,3.09-6.24,8.26-12.4,14.04c-6.15,5.76-11.95,9.52-23.52,17.01l-0.09,0.06c-5.4,3.5-8.81,5.52-11.29,7
					c-3.53,2.1-5.48,3.25-9.18,6.23c-5.31,4.28-11.34,9.13-16.26,17.34c-1.31,2.14-2.53,4.85-3.53,7.84l-0.01,0.04
					C210.31,165.39,209.37,170.32,209.25,174.41z"/>
			</g>
		</g>
	</g>
</g>
</svg>
